<svg width="18" height="18" viewBox="0 0 18 18" fill="none" xmlns="http://www.w3.org/2000/svg">
<path d="M1 4.4C1 5.86667 1.46667 7 2.46667 7.6C3.26667 8.13333 4.2 8.2 4.66667 8.2C4.8 8.2 4.86667 8.2 4.93333 8.2C4.93333 8.2 4.8 9.2 5.53333 10.2H5.46667C4.2 10.2 0 10.4667 0 13.9333C0 17.4667 3.86667 17.6 4.66667 17.6C4.73333 17.6 4.73333 17.6 4.73333 17.6C4.73333 17.6 4.8 17.6 4.86667 17.6C5.33333 17.6 6.66667 17.5333 7.86667 16.9333C9.4 16.2 10.2 14.8667 10.2 13.0667C10.2 11.3333 9 10.2667 8.13333 9.46667C7.6 9 7.13333 8.6 7.13333 8.2C7.13333 7.8 7.46667 7.46667 7.86667 7.13333C8.53333 6.53333 9.2 5.66667 9.2 4C9.2 2.53333 9 1.53333 7.86667 0.933333C8.06667 0.866667 8.53333 0.8 8.73333 0.8C9.33333 0.733333 10.2667 0.6 10.2667 0.133333V0H5.66667C5.6 0 1 0.2 1 4.4ZM8.46667 13.4C8.53333 14.8 7.33333 15.8667 5.53333 16C3.66667 16.1333 2.2 15.3333 2.13333 13.9333C2.06667 13.2667 2.4 12.6 3 12.0667C3.6 11.5333 4.4 11.2 5.26667 11.1333C5.4 11.1333 5.46667 11.1333 5.6 11.1333C7.2 11.0667 8.33333 12.0667 8.46667 13.4ZM7.26667 3.4C7.73333 5 7.06667 6.66667 5.93333 6.93333C5.8 7 5.66667 7 5.53333 7C4.53333 7 3.53333 6 3.2 4.6C3 3.86667 3 3.2 3.26667 2.53333C3.46667 1.86667 3.93333 1.46667 4.4 1.33333C4.53333 1.26667 4.66667 1.26667 4.8 1.26667C6 1.26667 6.73333 1.73333 7.26667 3.4ZM15 6.8V3.8H13V6.8H10V8.8H13V11.8H15V8.8H18V6.8H15Z" fill="black"/>
</svg>
