<svg width="15" height="19" viewBox="0 0 15 19" fill="none" xmlns="http://www.w3.org/2000/svg">
<path d="M14.6049 5.20381C14.0716 1.47047 10.3382 -0.396193 6.4049 0.0704738C3.27156 0.403807 0.13823 2.93714 0.00489663 6.53714C-0.06177 8.73714 0.53823 10.4038 2.67156 10.8705C3.6049 9.27047 2.4049 8.93714 2.2049 7.73714C1.4049 2.93714 7.73823 -0.26286 11.0049 3.07047C13.2716 5.40381 11.8049 12.4705 8.13823 11.7371C4.6049 11.0038 9.87156 5.40381 7.07156 4.27047C4.8049 3.33714 3.6049 7.00381 4.67156 8.87047C4.0049 12.0038 2.67156 14.9371 3.2049 18.8705C5.0049 17.5371 5.6049 15.0705 6.07156 12.4705C6.93823 13.0038 7.47156 13.6038 8.6049 13.6705C12.8049 14.0038 15.1382 9.40381 14.6049 5.20381Z" fill="black"/>
</svg>
