<svg width="19" height="15" viewBox="0 0 19 15" fill="none" xmlns="http://www.w3.org/2000/svg">
<path d="M16.5333 3.73333C16.5333 3.86667 16.5333 4.06667 16.5333 4.2C16.5333 9.2 12.7333 14.9333 5.8 14.9333C3.66667 14.9333 1.66667 14.3333 0 13.2667C0.266667 13.2667 0.6 13.3333 0.933333 13.3333C2.73333 13.3333 4.33333 12.7333 5.6 11.7333C3.93333 11.7333 2.53333 10.6 2.06667 9.13333C2.26667 9.2 2.53333 9.2 2.8 9.2C3.13333 9.2 3.46667 9.13333 3.8 9.06667C2.06667 8.66667 0.733333 7.13333 0.733333 5.33333C0.733333 5.33333 0.733333 5.33333 0.733333 5.26667C1.26667 5.53333 1.8 5.73333 2.46667 5.73333C1.46667 5.06667 0.8 3.93333 0.8 2.6C0.8 1.93333 1 1.26667 1.33333 0.733333C3.2 3 6 4.53333 9.13333 4.66667C9.06667 4.4 9.06667 4.13333 9.06667 3.8C9.06667 1.73333 10.7333 0 12.8667 0C13.9333 0 14.9333 0.466667 15.6 1.2C16.4667 1 17.2667 0.733333 18 0.266667C17.7333 1.13333 17.1333 1.86667 16.3333 2.33333C17 2.26667 17.7333 2.06667 18.4 1.8C17.8667 2.53333 17.2667 3.2 16.5333 3.73333Z" fill="black"/>
</svg>
