<svg width="19" height="13" viewBox="0 0 19 13" fill="none" xmlns="http://www.w3.org/2000/svg">
<path d="M13.5333 3.73333C13.5333 3.73333 12.0667 8.4 11.9333 8.73333C11.8667 8.33333 10.8 0 10.8 0C8.26666 0 6.93333 1.8 6.2 3.66667C6.2 3.66667 4.4 8.33333 4.26667 8.73333C4.26667 8.4 4 3.73333 4 3.73333C3.86667 1.4 1.73333 0 0 0L2.06667 12.6C4.73333 12.6 6.13333 10.8 6.86667 8.93333C6.86667 8.93333 8.46667 4.8 8.53333 4.66667C8.53333 4.86667 9.66667 12.6667 9.66667 12.6667C12.3333 12.6667 13.7333 11 14.5333 9.13333L18.2667 0C15.6667 0 14.2667 1.8 13.5333 3.73333Z" fill="black"/>
</svg>
